<svg xmlns="http://www.w3.org/2000/svg"><symbol id="share" viewBox="0 0 256 256"><path d="M22.5 128l96.7 27.2 61.5-71.1-71.7 49.8-37.9-10.6 135.1-67.5-35 128.1-32.9-29.3-19.1 25.7v-6.8l-17.6-4.9v64.9l39.3-53 39.8 35.4 52.8-193.4z"/></symbol><symbol id="fullscreen" viewBox="0 0 256 256"><path d="M230.8 102.3h-34.2V59.4h-42.9V25.2h77.1zm-77.1 128.5v-34.2h42.9v-42.9h34.2v77.1zM25.2 153.7h34.2v42.9h42.9v34.2H25.2zm77.1-128.5v34.2H59.4v42.9H25.2V25.2z"/></symbol><symbol id="download" viewBox="0 0 256 256"><path d="M147.2 32.1v105.5h24.1L128 185.7l-43.3-48.1h24.1V32.1zm19.2-19.2H89.6v105.5h-48l86.4 96 86.4-96h-48zm28.8 182.3v28.7H60.8v-28.7H41.6v47.9h172.8v-47.9z"/></symbol><symbol id="heart" viewBox="0 0 256 256"><path d="M128 103.3c2.1-10 13.8-55.7 48.1-55.7 19.8 0 41.2 13.9 41.2 44.7 0 34.9-32.4 75.6-89.3 112.8-56.9-37.2-89.3-77.9-89.3-112.8 0-31.1 21.2-44.7 40.9-44.7 35 0 45.9 45.8 48.4 55.7zm-107.2-11c0 36.3 27.4 84.7 107.2 133.9 79.8-49.2 107.2-97.6 107.2-133.9 0-71.1-86.2-80.6-107.2-33.4-20.9-47-107.2-38.1-107.2 33.4z"/></symbol><symbol id="comment" viewBox="0 0 256 256"><path fill-rule="evenodd" d="M207 50c-21.2-17-50-26.7-79.1-26.7s-57.7 9.5-79.2 26.8S14 92.7 14 119.1a84.6 84.6 0 0 0 18.1 52.2l-20.5 65.3 71.2-30.7a182.3 182.3 0 0 0 43.9 5.6c32 0 61.4-9.7 82.7-27.2s32.5-40.4 32.5-65.2c0-26.5-12.4-51-34.9-69.1zm-80.3 143c-17.4 0-31.4-3-43.9-6.2l-1.5-.4-40 17.3 11.4-36.5-1.6-1.9c-9.7-11.6-18.6-25.2-18.6-46.2 0-42.6 42.8-77.3 95.4-77.3s95.5 34.7 95.5 77.3-41.6 73.9-96.7 73.9z"/><circle cx="173.4" cy="119" r="18.3"/><path fill-rule="evenodd" d="M127.9 137.4a18.4 18.4 0 1 1 18.4-18.4 18.4 18.4 0 0 1-18.4 18.4zm-45.5 0a18.4 18.4 0 1 1 18.3-18.4 18.4 18.4 0 0 1-18.3 18.4z"/></symbol></svg>